<?xml version="1.0" encoding="UTF-8"?>
<svg width="134px" height="42px" viewBox="0 0 134 42" version="1.1" xmlns="http://www.w3.org/2000/svg" xmlns:xlink="http://www.w3.org/1999/xlink">
    <!-- Generator: Sketch 49.1 (51147) - http://www.bohemiancoding.com/sketch -->
    <title>Logo-White</title>
    <desc>Created with Sketch.</desc>
    <defs></defs>
    <g id="Logo-White" stroke="none" stroke-width="1" fill="none" fill-rule="evenodd">
        <g id="Logo" fill="#FFFFFF">
            <path d="M36.74775,22.58325 L36,23.01675 L36,39 L30,39 L30,28.5 C30,24.3645 26.6355,21 22.5,21 C18.3645,21 15,17.6355 15,13.5 C15,9.3645 18.3645,6 22.5,6 C26.6355,6 30,9.3645 30,13.5 L33,13.5 C33,9.32025 30.54,5.71425 26.99625,4.02525 C28.39425,3.357 29.93025,3 31.5,3 C37.29,3 42,7.71 42,13.5 C42,17.226 39.987,20.70675 36.74775,22.58325 M31.5,0 C28.4175,0 25.43325,1.06125 23.03325,3 L22.5,3 L13.5,3 C6.05625,3 0,9.0555 0,16.5 C0,16.86975 0.021,17.2395 0.05175,17.607 C0.0615,17.73375 0.07575,17.859 0.08925,17.98425 C0.11625,18.22425 0.15,18.462 0.18975,18.69975 C0.213,18.84225 0.2325,18.98625 0.261,19.128 C0.321,19.4265 0.39075,19.72275 0.471,20.01675 C0.5295,20.2335 0.59775,20.44575 0.66675,20.658 C0.7005,20.76 0.7335,20.862 0.76875,20.96325 C0.85125,21.19725 0.93675,21.42825 1.0305,21.65625 C1.035,21.666 1.0395,21.6765 1.044,21.68625 C2.4435,25.0485 5.1615,27.73575 8.5965,29.073 C8.796,29.151 9.00525,29.22675 9.22875,29.3025 C9.74325,29.4735 10.2705,29.6175 10.812,29.72625 L10.8255,29.72925 C11.18775,29.802 11.55375,29.865 11.928,29.90925 C11.95275,29.91225 12,29.967 12,30.03675 L12,42 L30,42 L39,42 L39,24.7125 C42.72225,22.21725 45,17.9985 45,13.5 C45,6.0555 38.94375,0 31.5,0"></path>
            <path d="M68.7138672,19.2373047 C68.7138672,20.6728587 68.2905316,21.7817344 67.4438477,22.5639648 C66.5971637,23.3461953 65.394539,23.7373047 63.8359375,23.7373047 L62.8603516,23.7373047 L62.8603516,28 L59.3886719,28 L59.3886719,15.1503906 L63.8359375,15.1503906 C65.4589925,15.1503906 66.6777303,15.5048793 67.4921875,16.2138672 C68.3066447,16.9228551 68.7138672,17.9306575 68.7138672,19.2373047 Z M62.8603516,20.9072266 L63.4931641,20.9072266 C64.014651,20.9072266 64.4291977,20.7607437 64.7368164,20.4677734 C65.0444351,20.1748032 65.1982422,19.7705104 65.1982422,19.2548828 C65.1982422,18.387691 64.7177782,17.9541016 63.7568359,17.9541016 L62.8603516,17.9541016 L62.8603516,20.9072266 Z M70.7617188,28 L70.7617188,15.1503906 L74.2509766,15.1503906 L74.2509766,28 L70.7617188,28 Z M84.6572266,28 L77.0283203,28 L77.0283203,15.1503906 L84.6572266,15.1503906 L84.6572266,17.9365234 L80.5,17.9365234 L80.5,19.9580078 L84.3496094,19.9580078 L84.3496094,22.7441406 L80.5,22.7441406 L80.5,25.1699219 L84.6572266,25.1699219 L84.6572266,28 Z M90.3789062,23.3242188 L90.3789062,28 L86.9072266,28 L86.9072266,15.1503906 L91.1171875,15.1503906 C94.6093925,15.1503906 96.3554688,16.416003 96.3554688,18.9472656 C96.3554688,20.4355543 95.6289135,21.58691 94.1757812,22.4013672 L97.9199219,28 L93.9824219,28 L91.2578125,23.3242188 L90.3789062,23.3242188 Z M90.3789062,20.7138672 L91.0292969,20.7138672 C92.2421936,20.7138672 92.8486328,20.1777397 92.8486328,19.1054688 C92.8486328,18.2206987 92.2539122,17.7783203 91.0644531,17.7783203 L90.3789062,17.7783203 L90.3789062,20.7138672 Z M102.560547,23.3242188 L102.560547,28 L99.0888672,28 L99.0888672,15.1503906 L103.298828,15.1503906 C106.791033,15.1503906 108.537109,16.416003 108.537109,18.9472656 C108.537109,20.4355543 107.810554,21.58691 106.357422,22.4013672 L110.101562,28 L106.164062,28 L103.439453,23.3242188 L102.560547,23.3242188 Z M102.560547,20.7138672 L103.210938,20.7138672 C104.423834,20.7138672 105.030273,20.1777397 105.030273,19.1054688 C105.030273,18.2206987 104.435553,17.7783203 103.246094,17.7783203 L102.560547,17.7783203 L102.560547,20.7138672 Z M123.293945,21.5576172 C123.293945,23.7197374 122.763677,25.3632756 121.703125,26.4882812 C120.642573,27.6132869 119.089854,28.1757812 117.044922,28.1757812 C115.029287,28.1757812 113.483892,27.6103572 112.408691,26.4794922 C111.333491,25.3486272 110.795898,23.7021592 110.795898,21.5400391 C110.795898,19.4013565 111.330561,17.768072 112.399902,16.6401367 C113.469244,15.5122014 115.023427,14.9482422 117.0625,14.9482422 C119.107432,14.9482422 120.657221,15.5078069 121.711914,16.6269531 C122.766607,17.7460993 123.293945,19.3896376 123.293945,21.5576172 Z M114.452148,21.5576172 C114.452148,24.0420046 115.316398,25.2841797 117.044922,25.2841797 C117.923833,25.2841797 118.575681,24.9824249 119.000488,24.3789062 C119.425295,23.7753876 119.637695,22.8349673 119.637695,21.5576172 C119.637695,20.2744076 119.422365,19.3266632 118.991699,18.7143555 C118.561033,18.1020477 117.917973,17.7958984 117.0625,17.7958984 C115.322257,17.7958984 114.452148,19.0497921 114.452148,21.5576172 Z M130.74707,28 L127.275391,28 L127.275391,17.9892578 L124.137695,17.9892578 L124.137695,15.1503906 L133.875977,15.1503906 L133.875977,17.9892578 L130.74707,17.9892578 L130.74707,28 Z" id="Pierrot"></path>
        </g>
    </g>
</svg>