<?xml version="1.0" encoding="UTF-8"?>
<svg width="486px" height="514px" viewBox="0 0 486 514" version="1.1" xmlns="http://www.w3.org/2000/svg" xmlns:xlink="http://www.w3.org/1999/xlink">
    <!-- Generator: Sketch 49.1 (51147) - http://www.bohemiancoding.com/sketch -->
    <title>BackgroundImage</title>
    <desc>Created with Sketch.</desc>
    <defs></defs>
    <g id="Main" stroke="none" stroke-width="1" fill="none" fill-rule="evenodd">
        <g id="Page" transform="translate(-538.000000, -141.000000)" fill="#EBF9F6">
            <g id="Hero" transform="translate(112.000000, 123.000000)">
                <g id="Hero-Image" transform="translate(398.000000, 0.000000)">
                    <path d="M309.167776,20 L399.278496,20 C518.792778,20 615.678246,116.885468 615.678246,236.39975 C615.678246,238.814416 615.63783,241.228912 615.557016,243.642225 L613.808915,295.844917 C609.361666,428.650952 498.095894,532.706308 365.289859,528.259059 C354.318005,527.891647 343.384162,526.773742 332.564972,524.91318 L145.751943,492.787185 C81.1852373,481.683732 34,425.691484 34,360.177011 L34,360.177011 C34,286.071817 54.7978824,213.454093 94.0277942,150.584435 L104.755457,133.392337 C148.766739,62.8600785 226.030585,20 309.167776,20 Z" id="BackgroundImage" transform="translate(324.839123, 274.198232) rotate(4.000000) translate(-324.839123, -274.198232) "></path>
                </g>
            </g>
        </g>
    </g>
</svg>