<?xml version="1.0" encoding="UTF-8"?>
<svg width="45px" height="42px" viewBox="0 0 45 42" version="1.1" xmlns="http://www.w3.org/2000/svg" xmlns:xlink="http://www.w3.org/1999/xlink">
    <!-- Generator: Sketch 49.1 (51147) - http://www.bohemiancoding.com/sketch -->
    <title>Logo</title>
    <desc>Created with Sketch.</desc>
    <defs></defs>
    <g id="Symbols" stroke="none" stroke-width="1" fill="none" fill-rule="evenodd">
        <g id="Logo-Texte" fill="#222222">
            <g id="Logo">
                <path d="M36.74775,22.58325 L36,23.01675 L36,39 L30,39 L30,28.5 C30,24.3645 26.6355,21 22.5,21 C18.3645,21 15,17.6355 15,13.5 C15,9.3645 18.3645,6 22.5,6 C26.6355,6 30,9.3645 30,13.5 L33,13.5 C33,9.32025 30.54,5.71425 26.99625,4.02525 C28.39425,3.357 29.93025,3 31.5,3 C37.29,3 42,7.71 42,13.5 C42,17.226 39.987,20.70675 36.74775,22.58325 M31.5,0 C28.4175,0 25.43325,1.06125 23.03325,3 L22.5,3 L13.5,3 C6.05625,3 0,9.0555 0,16.5 C0,16.86975 0.021,17.2395 0.05175,17.607 C0.0615,17.73375 0.07575,17.859 0.08925,17.98425 C0.11625,18.22425 0.15,18.462 0.18975,18.69975 C0.213,18.84225 0.2325,18.98625 0.261,19.128 C0.321,19.4265 0.39075,19.72275 0.471,20.01675 C0.5295,20.2335 0.59775,20.44575 0.66675,20.658 C0.7005,20.76 0.7335,20.862 0.76875,20.96325 C0.85125,21.19725 0.93675,21.42825 1.0305,21.65625 C1.035,21.666 1.0395,21.6765 1.044,21.68625 C2.4435,25.0485 5.1615,27.73575 8.5965,29.073 C8.796,29.151 9.00525,29.22675 9.22875,29.3025 C9.74325,29.4735 10.2705,29.6175 10.812,29.72625 L10.8255,29.72925 C11.18775,29.802 11.55375,29.865 11.928,29.90925 C11.95275,29.91225 12,29.967 12,30.03675 L12,42 L30,42 L39,42 L39,24.7125 C42.72225,22.21725 45,17.9985 45,13.5 C45,6.0555 38.94375,0 31.5,0"></path>
            </g>
        </g>
    </g>
</svg>