<?xml version="1.0" encoding="UTF-8" standalone="no"?>
<svg width="42px" height="42px" viewBox="0 0 42 42" version="1.1" xmlns="http://www.w3.org/2000/svg" xmlns:xlink="http://www.w3.org/1999/xlink">
    <!-- Generator: Sketch 50.2 (55047) - http://www.bohemiancoding.com/sketch -->
    <title>logo</title>
    <desc>Created with Sketch.</desc>
    <defs></defs>
    <g id="Symbols" stroke="none" stroke-width="1" fill="none" fill-rule="evenodd">
        <g id="logo">
            <g>
                <path d="M21,0 C9.40182353,0 0,9.40213235 0,21 C0,32.5978676 9.40182353,42 21,42 C32.5981765,42 42,32.5978676 42,21 C42,9.40213235 32.5981765,0 21,0 M21,3.08823529 C30.8764853,3.08823529 38.9117647,11.1235147 38.9117647,21 C38.9117647,30.8764853 30.8764853,38.9117647 21,38.9117647 C11.1235147,38.9117647 3.08823529,30.8764853 3.08823529,21 C3.08823529,11.1235147 11.1235147,3.08823529 21,3.08823529" id="Fill-1" fill="#4D4D4D"></path>
                <path d="M13.2794118,26.25 C13.2794118,28.1261029 11.7584559,29.6470588 9.88235294,29.6470588 C8.00625,29.6470588 6.48529412,28.1261029 6.48529412,26.25 C6.48529412,24.3738971 8.00625,22.8529412 9.88235294,22.8529412 C11.7584559,22.8529412 13.2794118,24.3738971 13.2794118,26.25" id="Fill-3" fill="#26D7B9"></path>
                <path d="M25.3235294,31.1911765 C25.3235294,34.0907206 22.9730735,36.4411765 20.0735294,36.4411765 C17.1739853,36.4411765 14.8235294,34.0907206 14.8235294,31.1911765 C14.8235294,28.2916324 17.1739853,25.9411765 20.0735294,25.9411765 C22.9730735,25.9411765 25.3235294,28.2916324 25.3235294,31.1911765" id="Fill-5" fill="#FFA32D"></path>
                <path d="M31.1911765,31.8823529 C33.23775,31.8823529 34.8970588,30.2230441 34.8970588,28.1764706 C34.8970588,26.1298971 33.23775,24.4705882 31.1911765,24.4705882 C29.1446029,24.4705882 27.4852941,26.1298971 27.4852941,28.1764706 C27.4852941,30.2230441 29.1446029,31.8823529 31.1911765,31.8823529" id="Fill-7" fill="#FFE373"></path>
                <path d="M30,19.7426471 C30,22.313046 27.9159871,24.3970588 25.3455882,24.3970588 C22.7751893,24.3970588 20.6911765,22.313046 20.6911765,19.7426471 C20.6911765,17.1722482 22.7751893,15.0882353 25.3455882,15.0882353 C27.9159871,15.0882353 30,17.1722482 30,19.7426471" id="Fill-9" fill="#F8376D"></path>
                <path d="M18.8382353,21.9264706 C18.8382353,23.2908529 17.7320294,24.3970588 16.3676471,24.3970588 C15.0032647,24.3970588 13.8970588,23.2908529 13.8970588,21.9264706 C13.8970588,20.5620882 15.0032647,19.4558824 16.3676471,19.4558824 C17.7320294,19.4558824 18.8382353,20.5620882 18.8382353,21.9264706" id="Fill-11" fill="#45C7E2"></path>
            </g>
        </g>
    </g>
</svg>